<svg width="184" height="124" viewBox="0 0 184 124" fill="none" xmlns="http://www.w3.org/2000/svg">
<path d="M169.366 123.62C160.819 123.62 155.749 119.262 155.361 112.984H163.534C163.534 115.077 164.698 117.862 169.754 118.036C173.259 118.036 175.198 115.943 175.198 114.371C174.811 111.932 171.694 111.758 168.59 111.225C165.086 110.719 162.37 110.012 160.417 109.146C157.702 107.747 156.137 104.775 156.137 101.643C156.137 96.0585 160.819 91.7004 168.978 91.7004C176.764 91.7004 181.82 95.712 182.194 101.816H174.423C174.423 100.257 174.035 97.6311 169.366 97.6311C166.25 97.6311 164.31 98.1509 163.922 100.417C163.922 103.562 170.53 103.389 175.586 104.601C180.255 105.828 183.372 108.786 183.372 112.984C183.372 120.661 177.151 123.62 169.366 123.62Z" fill="#7B7B7B"/>
<path d="M20.4337 72.1158L47.267 56.5892L61.6602 81.1919H25.49" fill="#7B7B7B"/>
<path d="M76.8597 122.694V91.6409V122.694Z" fill="#7B7B7B"/>
<path d="M76.8597 122.694V91.6409" stroke="#7B7B7B" stroke-width="12.8875"/>
<path d="M7.97932 107.627C7.97932 112.505 12.2598 116.517 16.9149 116.517C21.9846 116.517 25.8638 112.505 25.8638 107.627C25.8638 102.923 21.9846 98.738 16.9149 98.738C12.2598 98.738 7.97932 102.923 7.97932 107.627ZM16.5269 123.674C7.97932 123.674 0.595459 116.517 0.595459 107.627C0.595459 98.738 7.97932 91.7543 16.5269 91.7543C20.0316 91.7543 23.1483 92.634 25.8638 94.5398V92.1008H33.6489V122.967H25.8638V121.048C23.5363 122.794 20.0316 123.674 16.5269 123.674Z" fill="#7B7B7B"/>
<path d="M120.385 81.1851L83.0518 16.307L109.885 0.607262L156.555 81.1851" fill="#7B7B7B"/>
<path d="M43.7613 107.627C43.7613 112.505 47.6539 116.517 52.7102 116.517C57.3653 116.517 61.6591 112.505 61.6591 107.627C61.6591 102.923 57.3653 98.738 52.7102 98.738C47.6539 98.738 43.7613 102.923 43.7613 107.627ZM52.3223 123.674C43.3734 123.674 36.3774 116.517 36.3774 107.627C36.3774 98.738 43.3734 91.7543 52.3223 91.7543C55.8136 91.7543 58.9303 92.6339 61.6591 94.5398V81.4654H69.4309V122.967H61.6591V121.048C58.9303 122.794 55.8136 123.674 52.3223 123.674Z" fill="#7B7B7B"/>
<path d="M51.9388 44.3856L79.1601 29.0455L109.11 81.1829H80.7118V88.8596H72.94V81.1829" fill="#7B7B7B"/>
<path d="M178.329 89.1016C176.376 89.1016 174.436 87.3557 174.436 85.2632C174.436 83.1708 176.376 81.4249 178.329 81.4249C180.656 81.4249 182.221 83.1708 182.221 85.2632C182.221 87.3557 180.656 89.1016 178.329 89.1016ZM178.329 81.958C176.376 81.958 175.212 83.5173 175.212 85.2632C175.212 87.0091 176.376 88.5818 178.329 88.5818C180.268 88.5818 181.432 87.0091 181.432 85.2632C181.432 83.5173 180.268 81.958 178.329 81.958Z" fill="#7B7B7B"/>
<path d="M179.131 87.3694L178.355 85.6235H177.579V87.3694H176.991V83.1845H178.743C179.131 83.1845 179.907 83.7176 179.907 84.4107C179.907 85.1037 179.519 85.4502 179.131 85.6235L179.907 87.3694H179.131ZM178.355 83.7176H177.579V85.1037H178.355C179.131 85.1037 179.131 84.9304 179.131 84.4107C179.131 84.0508 179.131 83.7176 178.355 83.7176Z" fill="#7B7B7B"/>
<path d="M126.963 107.627C126.963 112.505 130.856 116.517 135.912 116.517C140.58 116.517 144.847 112.505 144.847 107.627C144.847 102.923 140.58 98.738 135.912 98.738C130.856 98.738 126.963 102.923 126.963 107.627ZM135.511 123.674C126.575 123.674 119.579 116.517 119.579 107.627C119.579 98.738 126.575 91.7543 135.511 91.7543C139.015 91.7543 142.132 92.634 144.847 94.5398V92.1008H152.245V122.967H144.847V121.048C142.132 122.794 139.015 123.674 135.511 123.674Z" fill="#7B7B7B"/>
<path d="M91.2076 107.627C91.2076 112.505 95.4881 116.517 100.157 116.517C105.213 116.517 109.105 112.505 109.105 107.627C109.105 102.923 105.213 98.738 100.157 98.738C95.4881 98.738 91.2076 102.923 91.2076 107.627ZM109.105 81.4654H116.877V122.967H109.105V121.048C106.765 122.794 103.648 123.674 100.157 123.674C91.2076 123.674 83.8237 116.517 83.8237 107.627C83.8237 98.738 91.2076 91.7543 100.157 91.7543C103.648 91.7543 106.765 92.6339 109.105 94.5398V81.4654Z" fill="#7B7B7B"/>
</svg>
