<svg width="527" height="74" viewBox="0 0 527 74" fill="none" xmlns="http://www.w3.org/2000/svg">
<path d="M0.472 74V4.88H13.24V33.008H29.464L53.08 4.88H66.904V8.528L40.984 39.44L67 70.352V74H53.08L29.464 45.776H13.24V74H0.472ZM76.492 74V18.32H89.068V74H76.492ZM76.492 12.752V0.0799961H89.068V12.752H76.492ZM111.113 74C107.465 74 104.329 72.72 101.705 70.16C99.1448 67.536 97.8648 64.4 97.8648 60.752V31.568C97.8648 27.92 99.1448 24.816 101.705 22.256C104.329 19.632 107.465 18.32 111.113 18.32H154.313V30.896H113.801C112.009 30.896 110.985 31.024 110.729 31.28C110.537 31.472 110.441 32.464 110.441 34.256V58.064C110.441 59.856 110.537 60.88 110.729 61.136C110.985 61.328 112.009 61.424 113.801 61.424H154.409V74H111.113ZM162.372 74V0.0799961H174.948V39.824H184.836L204.708 18.32H218.148V21.776L195.972 46.16L218.052 70.544V74H204.708L184.836 52.496H174.948V74H162.372ZM237.106 74C233.458 74 230.322 72.72 227.698 70.16C225.138 67.536 223.858 64.4 223.858 60.752V58.64H236.434V59.216C236.434 60.24 236.53 60.88 236.722 61.136C236.978 61.328 237.618 61.424 238.642 61.424H265.618C266.578 61.424 267.186 61.328 267.442 61.136C267.698 60.88 267.826 60.24 267.826 59.216V54.704C267.826 53.68 267.698 53.072 267.442 52.88C267.186 52.624 266.578 52.496 265.618 52.496H237.106C233.458 52.496 230.322 51.184 227.698 48.56C225.138 45.936 223.858 42.832 223.858 39.248V31.568C223.858 27.92 225.138 24.816 227.698 22.256C230.322 19.632 233.458 18.32 237.106 18.32H267.154C270.802 18.32 273.938 19.632 276.562 22.256C279.186 24.816 280.498 27.92 280.498 31.568V33.68H267.826V33.104C267.826 32.08 267.698 31.472 267.442 31.28C267.186 31.024 266.578 30.896 265.618 30.896H238.642C237.618 30.896 236.978 31.024 236.722 31.28C236.53 31.472 236.434 32.08 236.434 33.104V37.616C236.434 38.64 236.53 39.28 236.722 39.536C236.978 39.728 237.618 39.824 238.642 39.824H267.154C270.802 39.824 273.938 41.136 276.562 43.76C279.186 46.384 280.498 49.488 280.498 53.072V60.752C280.498 64.4 279.186 67.536 276.562 70.16C273.938 72.72 270.802 74 267.154 74H237.106ZM290.247 74V61.424H302.823V74H290.247ZM324.957 74C321.309 74 318.173 72.72 315.549 70.16C312.989 67.536 311.709 64.4 311.709 60.752V31.568C311.709 27.92 312.989 24.816 315.549 22.256C318.173 19.632 321.309 18.32 324.957 18.32H368.157V30.896H327.645C325.853 30.896 324.829 31.024 324.573 31.28C324.381 31.472 324.285 32.464 324.285 34.256V58.064C324.285 59.856 324.381 60.88 324.573 61.136C324.829 61.328 325.853 61.424 327.645 61.424H368.253V74H324.957ZM391.05 74C387.402 74 384.266 72.72 381.642 70.16C379.082 67.536 377.802 64.4 377.802 60.752V31.568C377.802 27.92 379.082 24.816 381.642 22.256C384.266 19.632 387.402 18.32 391.05 18.32H421.098C424.746 18.32 427.85 19.632 430.41 22.256C433.034 24.816 434.346 27.92 434.346 31.568V60.752C434.346 64.4 433.034 67.536 430.41 70.16C427.85 72.72 424.746 74 421.098 74H391.05ZM393.738 61.424H418.41C420.202 61.424 421.194 61.328 421.386 61.136C421.642 60.88 421.77 59.856 421.77 58.064V34.256C421.77 32.464 421.642 31.472 421.386 31.28C421.194 31.024 420.202 30.896 418.41 30.896H393.738C391.946 30.896 390.922 31.024 390.666 31.28C390.474 31.472 390.378 32.464 390.378 34.256V58.064C390.378 59.856 390.474 60.88 390.666 61.136C390.922 61.328 391.946 61.424 393.738 61.424ZM444.559 74V18.32H513.583C517.231 18.32 520.335 19.632 522.895 22.256C525.519 24.816 526.831 27.92 526.831 31.568V74H514.351V34.256C514.351 32.464 514.223 31.472 513.967 31.28C513.711 31.024 512.719 30.896 510.991 30.896H495.439C493.647 30.896 492.623 31.024 492.367 31.28C492.175 31.472 492.079 32.464 492.079 34.256V74H479.407V34.256C479.407 32.464 479.279 31.472 479.023 31.28C478.831 31.024 477.839 30.896 476.047 30.896H460.495C458.703 30.896 457.679 31.024 457.423 31.28C457.231 31.472 457.135 32.464 457.135 34.256V74H444.559Z" fill="black"/>
</svg>
