<svg width="51" height="11" viewBox="0 0 51 11" fill="none" xmlns="http://www.w3.org/2000/svg">
<path d="M4.54915 0.0617532L0 0.617532V1.09097L0.524902 1.25565C1.10127 1.4512 1.1836 1.59529 1.1836 2.26428V8.78954C1.1836 9.53058 0.998343 9.74671 0 9.92168V10.426H5.59896V9.92168C4.70354 9.7673 4.56974 9.57174 4.56974 8.85129V2.3775C4.8785 1.81143 5.46516 1.41003 6.29883 1.41003C7.37951 1.41003 7.99704 2.08932 7.99704 3.45818V8.85129C7.99704 9.57174 7.87353 9.7673 6.97811 9.92168V10.426H12.4124V9.92168C11.517 9.7673 11.3832 9.57174 11.3832 8.85129V3.10824C11.3832 2.82006 11.3626 2.57305 11.3111 2.32604C11.6302 1.77026 12.2477 1.41003 13.0814 1.41003C14.1724 1.41003 14.8105 2.08932 14.8105 3.45818V8.85129C14.8105 9.57174 14.6767 9.757 13.7813 9.92168V10.426H19.3802V9.92168C18.3716 9.74671 18.1966 9.53058 18.1966 8.78954V3.26263C18.1966 1.09097 16.8483 0 14.8002 0C13.0814 0 11.7537 0.823376 11.2494 1.98639C10.8789 0.69987 9.66438 0 8.0485 0C6.29883 0 5.04318 0.823376 4.54915 1.9761V0.0617532Z" fill="#585858"/>
<path d="M25.3711 10.6318C28.6852 10.6318 31.1656 8.42931 31.1656 5.26961C31.1656 2.04815 28.7058 0 25.4123 0C22.1085 0 19.628 2.19224 19.628 5.35194C19.628 8.58369 22.0879 10.6318 25.3711 10.6318ZM25.4431 9.95256C24.064 9.95256 23.2097 8.1823 23.2097 5.23873C23.2097 2.39808 23.9508 0.679285 25.3505 0.679285C26.7194 0.679285 27.5736 2.43925 27.5736 5.38282C27.5736 8.22347 26.8326 9.95256 25.4431 9.95256Z" fill="#585858"/>
<path d="M32.1236 2.39808L35.2113 10.4466H37.0639L40.0074 2.82006C40.6455 1.16302 40.9337 0.874837 41.7571 0.710162V0.195552H38.3195V0.710162C39.4825 0.874837 39.6163 1.20419 39.1326 2.73772L37.5064 7.61623L35.8803 2.71714C35.4068 1.20419 35.5406 0.864545 36.7345 0.710162V0.195552H30.5489V0.710162C31.362 0.885129 31.6399 1.17331 32.1236 2.39808Z" fill="#585858"/>
<path d="M40.9551 5.33136C40.9551 8.60428 43.3738 10.6318 46.4409 10.6318C48.3552 10.6318 49.9196 9.94226 50.671 8.81012L50.6607 8.3058C50.1461 8.83071 49.2815 9.21152 48.2729 9.21152C46.1939 9.21152 44.6603 7.69856 44.3927 5.02259H50.8048C50.8254 4.84763 50.8562 4.58003 50.8562 4.31243C50.8562 1.75997 49.1477 0 46.2968 0C43.0856 0 40.9551 2.20253 40.9551 5.33136ZM44.3413 4.13746C44.3413 1.92464 45.0514 0.679285 46.2968 0.679285C47.3878 0.679285 47.8818 1.8526 47.8818 3.68461C47.8818 3.98308 47.8818 4.19922 47.8715 4.39477L44.3516 4.43594C44.3413 4.33302 44.3413 4.24039 44.3413 4.13746Z" fill="#585858"/>
</svg>
