<svg xmlns="http://www.w3.org/2000/svg" viewBox="0 0 64 64" width="256px" height="256px"><path fill="#fff" d="M31.999,5.006L4,52.849l7.126,7.17l15.879-11.006h-8c-0.357,0-0.691-0.193-0.868-0.504 c-0.178-0.312-0.175-0.697,0.007-1.005l12.993-22.011c0.359-0.607,1.365-0.606,1.723-0.001l13.005,22.012 c0.183,0.309,0.186,0.693,0.008,1.005c-0.178,0.311-0.511,0.504-0.869,0.504h-7.997l15.865,11.005l7.127-7.169L31.999,5.006z"/><path fill="#fff" d="M31.999,6.985L58.746,52.69l-5.993,6.029l-12.551-8.707h4.801c0.718,0,1.381-0.385,1.737-1.009 c0.356-0.624,0.35-1.39-0.015-2.009L33.721,24.984c-0.36-0.609-1.015-0.983-1.722-0.983c0,0,0,0,0,0 c-0.707,0-1.362,0.374-1.722,0.983L17.282,46.996c-0.365,0.618-0.371,1.385-0.015,2.008c0.356,0.624,1.019,1.008,1.737,1.008h4.802 l-12.561,8.707l-5.994-6.03L31.999,6.985 M31.999,4.005c-0.336,0-0.672,0.166-0.865,0.498L3.135,52.347 c-0.227,0.392-0.163,0.888,0.158,1.209l7.126,7.17c0.193,0.193,0.449,0.293,0.707,0.293c0.192,0,0.385-0.055,0.554-0.168 l15.878-11.006c0.823-0.549,0.435-1.832-0.555-1.832h-8l12.994-22.011l13.004,22.011h-7.997c-0.989,0-1.378,1.283-0.555,1.832 L52.317,60.85c0.169,0.113,0.362,0.168,0.554,0.168c0.258,0,0.514-0.1,0.707-0.293l7.126-7.17c0.321-0.321,0.385-0.817,0.158-1.209 L32.864,4.504C32.671,4.172,32.335,4.005,31.999,4.005L31.999,4.005z"/><path fill="#fff" d="M41.999,62c-0.552,0-1-0.448-1-1v-2c0-0.552,0.448-1,1-1c0.552,0,1,0.448,1,1v2 C42.999,61.552,42.551,62,41.999,62z M37.999,61v-2c0-0.552-0.448-1-1-1c-0.552,0-1,0.448-1,1v2c0,0.552,0.448,1,1,1 C37.551,62,37.999,61.552,37.999,61z M32.999,61v-2c0-0.552-0.448-1-1-1c-0.552,0-1,0.448-1,1v2c0,0.552,0.448,1,1,1 C32.551,62,32.999,61.552,32.999,61z M27.999,61v-2c0-0.552-0.448-1-1-1s-1,0.448-1,1v2c0,0.552,0.448,1,1,1 S27.999,61.552,27.999,61z M22.999,61v-2c0-0.552-0.448-1-1-1s-1,0.448-1,1v2c0,0.552,0.448,1,1,1S22.999,61.552,22.999,61z"/></svg>